<svg xmlns="http://www.w3.org/2000/svg" width="1920" height="1080" viewBox="0 0 1920 1080" version="1.1">
	<path d="M -0 540.001 L -0 1080.001 960.250 1079.751 L 1920.500 1079.500 1920.751 539.750 L 1921.002 0 960.501 0 L 0 0 -0 540.001 M 0.496 540.500 C 0.496 837.500, 0.610 958.851, 0.750 810.168 C 0.890 661.485, 0.890 418.485, 0.750 270.168 C 0.610 121.851, 0.496 243.500, 0.496 540.500 M 818.360 362.504 C 818.039 363.341, 818.235 364.582, 818.796 365.263 C 819.358 365.943, 822.719 371.675, 826.266 378 C 835.446 394.371, 836.248 395.762, 840.678 403 C 842.867 406.575, 849.526 418.050, 855.477 428.500 C 869.468 453.069, 868.950 452.171, 874.516 461.500 C 884.497 478.231, 892 491.601, 892 492.658 C 892 493.137, 888.400 499.787, 884 507.438 C 879.600 515.088, 876 521.537, 876 521.769 C 876 522.001, 875.153 523.386, 874.117 524.846 C 873.081 526.306, 871.337 529.075, 870.241 531 C 869.145 532.925, 863.777 542.375, 858.313 552 C 852.848 561.625, 845.300 574.675, 841.539 581 C 834.662 592.565, 833.646 594.327, 828.554 603.500 C 827.027 606.250, 824.028 611.504, 821.889 615.174 C 819.750 618.845, 818 622.333, 818 622.924 C 818 623.626, 821.798 624, 828.928 624 L 839.855 624 843.301 618.250 C 845.196 615.087, 847.870 610.475, 849.244 608 C 850.617 605.525, 853.889 599.900, 856.515 595.500 C 861.364 587.373, 861.882 586.488, 868.500 575 C 875.125 563.501, 875.640 562.595, 879.027 556.500 C 880.861 553.200, 885.044 546, 888.324 540.500 C 895.575 528.340, 894.929 529.460, 909.950 503 C 916.663 491.175, 923.431 479.475, 924.991 477 C 927.450 473.098, 946.468 440.085, 953.794 427 C 955.179 424.525, 958.043 419.642, 960.157 416.148 C 962.270 412.654, 964 409.595, 964 409.350 C 964 409.105, 965.490 406.563, 967.311 403.702 C 970.687 398.398, 977.701 386.072, 984.498 373.500 C 986.580 369.650, 988.938 365.741, 989.739 364.813 C 990.541 363.885, 990.906 362.657, 990.551 362.083 C 990.112 361.373, 962.646 361.031, 904.425 361.011 C 828.805 360.985, 818.877 361.158, 818.360 362.504 M 1012.590 362.370 C 1010.996 363.598, 989.173 400.608, 973.004 429.500 C 971.773 431.700, 969.919 434.694, 968.883 436.154 C 967.847 437.614, 967 439.023, 967 439.286 C 967 439.548, 963.400 445.945, 959 453.500 C 954.600 461.055, 951 467.406, 951 467.613 C 951 467.820, 947.175 474.346, 942.500 482.116 C 937.825 489.885, 934 496.435, 934 496.669 C 934 496.904, 932.425 499.558, 930.500 502.567 C 928.575 505.577, 927 508.198, 927 508.392 C 927 508.586, 923.574 514.764, 919.387 522.122 C 908.212 541.758, 908.133 541.893, 903.540 549.500 C 901.216 553.350, 898.177 558.525, 896.788 561 C 895.399 563.475, 890.778 571.575, 886.519 579 C 882.260 586.425, 877.640 594.525, 876.254 597 C 874.867 599.475, 873.391 601.950, 872.973 602.500 C 872.555 603.050, 871.320 605.075, 870.229 607 C 869.138 608.925, 866.657 613.280, 864.717 616.678 C 862.777 620.076, 861.447 623.114, 861.762 623.428 C 862.603 624.270, 882.309 624.095, 883.615 623.235 C 885.072 622.275, 900.575 596.286, 908.810 581 C 910.736 577.425, 913.142 573.306, 914.156 571.846 C 915.170 570.386, 916 568.880, 916 568.500 C 916 568.120, 916.847 566.614, 917.883 565.154 C 918.919 563.694, 920.644 560.925, 921.718 559 C 922.792 557.075, 924.895 553.302, 926.390 550.616 C 927.886 547.930, 930.660 543.308, 932.555 540.346 C 934.450 537.385, 936 534.802, 936 534.607 C 936 534.067, 947.566 513.707, 953.954 503 C 957.072 497.775, 959.923 492.825, 960.290 492 C 960.657 491.175, 962.082 488.700, 963.457 486.500 C 964.831 484.300, 967.111 480.337, 968.524 477.692 C 969.936 475.048, 972.871 469.978, 975.046 466.425 C 977.221 462.872, 979 459.784, 979 459.564 C 979 459.343, 981.766 454.514, 985.146 448.831 C 988.526 443.149, 991.795 437.600, 992.411 436.500 C 993.027 435.400, 995.377 431.350, 997.634 427.500 C 999.890 423.650, 1004.677 415.305, 1008.270 408.956 C 1011.863 402.607, 1015.685 395.857, 1016.763 393.956 C 1017.842 392.055, 1022.396 384.247, 1026.883 376.604 C 1031.370 368.962, 1034.845 362.512, 1034.604 362.271 C 1033.549 361.216, 1013.971 361.304, 1012.590 362.370 M 1055.911 362.677 C 1054.675 364.148, 1044.538 381.430, 1039.591 390.500 C 1038.991 391.600, 1038.250 392.725, 1037.945 393 C 1037.465 393.433, 1034.036 399.297, 1026.253 413 C 1025.159 414.925, 1020.538 423.025, 1015.983 431 C 1011.428 438.975, 1006.937 446.850, 1006.003 448.500 C 1005.069 450.150, 1002.734 453.975, 1000.814 457 C 998.894 460.025, 995.729 465.425, 993.780 469 C 989.306 477.206, 972.806 505.952, 966.515 516.500 C 961.067 525.633, 959.623 528.146, 955.023 536.500 C 953.205 539.800, 948.930 547.225, 945.523 553 C 942.116 558.775, 938.174 565.525, 936.763 568 C 935.353 570.475, 927.637 583.946, 919.617 597.935 C 911.598 611.924, 905.173 623.506, 905.340 623.674 C 905.553 623.887, 1058.267 624.185, 1077.719 624.011 C 1078.443 624.004, 1078.678 623.325, 1078.299 622.336 C 1077.405 620.008, 1064.138 596.726, 1053.129 578.169 C 1049.758 572.486, 1047 567.657, 1047 567.436 C 1047 567.216, 1045.200 564.094, 1043 560.500 C 1040.800 556.906, 1039 553.765, 1039 553.521 C 1039 553.277, 1036.525 548.953, 1033.500 543.911 C 1030.475 538.869, 1028 534.593, 1028 534.407 C 1028 534.222, 1025.360 529.667, 1022.134 524.285 C 1016.138 514.282, 1004 493.063, 1004 492.584 C 1004 492.438, 1009.448 482.909, 1016.106 471.409 C 1022.765 459.909, 1029.354 448.475, 1030.749 446 C 1032.144 443.525, 1034.122 440.306, 1035.143 438.846 C 1036.164 437.386, 1037 435.980, 1037 435.722 C 1037 435.464, 1039.925 430.189, 1043.500 424 C 1047.075 417.811, 1050 412.637, 1050 412.502 C 1050 412.366, 1052.475 408.131, 1055.500 403.089 C 1058.525 398.047, 1061 393.672, 1061 393.365 C 1061 393.059, 1061.973 391.442, 1063.162 389.772 C 1067.125 384.206, 1078.076 363.641, 1077.657 362.550 C 1077.413 361.913, 1073.204 361.348, 1067.343 361.164 C 1058.755 360.895, 1057.239 361.096, 1055.911 362.677 M 853 382.518 C 853 383.353, 854.800 386.999, 857 390.620 C 859.200 394.242, 861 397.608, 861 398.102 C 861 398.596, 861.398 399, 861.883 399 C 862.369 399, 863.019 399.788, 863.328 400.750 C 863.637 401.712, 865.205 404.750, 866.812 407.500 C 868.419 410.250, 872.794 417.900, 876.535 424.500 C 880.275 431.100, 887.309 443.186, 892.167 451.359 C 897.025 459.531, 901 466.548, 901 466.954 C 901 467.359, 901.865 468.473, 902.922 469.429 C 904.759 471.092, 904.908 471.066, 906.317 468.834 C 908.566 465.269, 921.783 442.326, 925.808 435 C 927.772 431.425, 932.593 423.100, 936.521 416.500 C 940.449 409.900, 945.163 401.800, 946.995 398.500 C 948.827 395.200, 951.201 390.925, 952.270 389 C 953.339 387.075, 954.654 384.957, 955.193 384.294 C 955.731 383.630, 955.882 382.618, 955.527 382.044 C 955.093 381.341, 938.248 381, 903.941 381 C 859.057 381, 853 381.181, 853 382.518 M 988.241 519.710 C 984.924 524.972, 974.678 542.926, 969.379 552.759 C 964.567 561.688, 963.569 563.436, 962.962 564 C 962.666 564.275, 959.562 569.450, 956.064 575.500 C 952.567 581.550, 948.700 588.097, 947.471 590.050 C 946.242 592.002, 944.051 595.940, 942.601 598.800 L 939.966 604 991.983 604 C 1020.592 604, 1043.981 603.663, 1043.958 603.250 C 1043.935 602.837, 1042.591 600.250, 1040.972 597.500 C 1039.353 594.750, 1036.201 589.350, 1033.967 585.500 C 1031.732 581.650, 1028.982 576.925, 1027.854 575 C 1026.726 573.075, 1023.542 567.450, 1020.779 562.500 C 1013.998 550.354, 1001.739 529.619, 1000.973 529 C 1000.633 528.725, 1000.064 527.825, 999.709 527 C 998.053 523.147, 993.310 515.603, 992.341 515.280 C 991.747 515.082, 989.901 517.075, 988.241 519.710" stroke="none" fill="#000000" fill-rule="evenodd"/>
</svg>
